<svg xmlns="http://www.w3.org/2000/svg" width="120" height="61" viewBox="0 0 120 61">
  <g id="Group_355" data-name="Group 355" transform="translate(-216 -1084)">
    <g id="レイヤー_2" data-name="レイヤー 2" transform="translate(252 1097)">
      <g id="Rectangle">
        <rect id="Rectangle_437" data-name="Rectangle 437" width="48" height="48" fill="none"/>
      </g>
      <g id="icon_data">
        <circle id="Ellipse_21" data-name="Ellipse 21" cx="6" cy="6" r="6" transform="translate(18.13 8.13)" fill="none" stroke="#94913a" stroke-linecap="round" stroke-linejoin="round" stroke-width="2"/>
        <path id="Path_58" data-name="Path 58" d="M8.93,40.65v-3c0-5.79,4.23-10.5,9.45-10.5H29.87c5.22,0,9.45,4.71,9.45,10.5v3" fill="none" stroke="#c1bf86" stroke-linecap="round" stroke-linejoin="round" stroke-width="2"/>
      </g>
    </g>
    <g id="レイヤー_2-2" data-name="レイヤー 2" transform="translate(288 1084)">
      <g id="Rectangle-2" data-name="Rectangle">
        <rect id="Rectangle_437-2" data-name="Rectangle 437" width="48" height="48" fill="none"/>
      </g>
      <g id="icon_data-2" data-name="icon_data">
        <circle id="Ellipse_21-2" data-name="Ellipse 21" cx="6" cy="6" r="6" transform="translate(18.13 8.13)" fill="none" stroke="#94913a" stroke-linecap="round" stroke-linejoin="round" stroke-width="2"/>
        <path id="Path_58-2" data-name="Path 58" d="M8.93,40.65v-3c0-5.79,4.23-10.5,9.45-10.5H29.87c5.22,0,9.45,4.71,9.45,10.5v3" fill="none" stroke="#c1bf86" stroke-linecap="round" stroke-linejoin="round" stroke-width="2"/>
      </g>
    </g>
    <g id="レイヤー_2-3" data-name="レイヤー 2" transform="translate(216 1084)">
      <g id="Rectangle-3" data-name="Rectangle">
        <rect id="Rectangle_437-3" data-name="Rectangle 437" width="48" height="48" fill="none"/>
      </g>
      <g id="icon_data-3" data-name="icon_data">
        <circle id="Ellipse_21-3" data-name="Ellipse 21" cx="6" cy="6" r="6" transform="translate(18.13 8.13)" fill="none" stroke="#94913a" stroke-linecap="round" stroke-linejoin="round" stroke-width="2"/>
        <path id="Path_58-3" data-name="Path 58" d="M8.93,40.65v-3c0-5.79,4.23-10.5,9.45-10.5H29.87c5.22,0,9.45,4.71,9.45,10.5v3" fill="none" stroke="#c1bf86" stroke-linecap="round" stroke-linejoin="round" stroke-width="2"/>
      </g>
    </g>
  </g>
</svg>
