<svg id="_196_b_hoso" data-name="196_b_hoso" xmlns="http://www.w3.org/2000/svg" width="48" height="48" viewBox="0 0 48 48">
  <rect id="Rectangle_438" data-name="Rectangle 438" width="48" height="48" fill="none"/>
  <path id="Path_59" data-name="Path 59" d="M16,46V11l8-8,8,8V46" fill="none" stroke="#94913a" stroke-linecap="round" stroke-linejoin="round" stroke-width="2"/>
  <path id="Path_60" data-name="Path 60" d="M34,22H46V46" fill="none" stroke="#94913a" stroke-linecap="round" stroke-linejoin="round" stroke-width="2"/>
  <path id="Path_61" data-name="Path 61" d="M2,46V22H14" fill="none" stroke="#94913a" stroke-linecap="round" stroke-linejoin="round" stroke-width="2"/>
  <path id="Path_82" data-name="Path 82" d="M0,0V6" transform="translate(24 40)" fill="none" stroke="#c1bf86" stroke-linecap="round" stroke-width="2"/>
  <circle id="Ellipse_22" data-name="Ellipse 22" cx="2" cy="2" r="2" transform="translate(22 13)" fill="#c1bf86"/>
  <circle id="Ellipse_23" data-name="Ellipse 23" cx="2" cy="2" r="2" transform="translate(7 34)" fill="#c1bf86"/>
  <circle id="Ellipse_24" data-name="Ellipse 24" cx="2" cy="2" r="2" transform="translate(7 27)" fill="#c1bf86"/>
  <circle id="Ellipse_25" data-name="Ellipse 25" cx="2" cy="2" r="2" transform="translate(7 41)" fill="#c1bf86"/>
  <circle id="Ellipse_26" data-name="Ellipse 26" cx="2" cy="2" r="2" transform="translate(37 34)" fill="#c1bf86"/>
  <circle id="Ellipse_27" data-name="Ellipse 27" cx="2" cy="2" r="2" transform="translate(37 27)" fill="#c1bf86"/>
  <circle id="Ellipse_28" data-name="Ellipse 28" cx="2" cy="2" r="2" transform="translate(37 41)" fill="#c1bf86"/>
</svg>
