<svg xmlns="http://www.w3.org/2000/svg" width="88.603" height="65.383" viewBox="0 0 88.603 65.383">
  <path id="Path_84" data-name="Path 84" d="M81.476,17.034,43.85,54.686a5.326,5.326,0,0,1-7.562,0L20.6,39a5.326,5.326,0,0,0-7.562,0L9.314,42.73a5.326,5.326,0,0,0,0,7.562L36.288,77.266a5.326,5.326,0,0,0,7.562,0L92.766,28.351a5.326,5.326,0,0,0,0-7.562l-3.728-3.755a5.326,5.326,0,0,0-7.562,0Z" transform="translate(-6.738 -14.458)" fill="#94913a" stroke="#94913a" stroke-linecap="round" stroke-linejoin="round" stroke-width="2"/>
</svg>
