<svg xmlns="http://www.w3.org/2000/svg" xmlns:xlink="http://www.w3.org/1999/xlink" width="26.403" height="22.143" viewBox="0 0 26.403 22.143">
  <defs>
    <clipPath id="clip-path">
      <rect id="Rectangle_482" data-name="Rectangle 482" width="26.403" height="22.143" fill="#e4e4e4"/>
    </clipPath>
  </defs>
  <g id="Group_399" data-name="Group 399" transform="translate(0)">
    <g id="Group_398" data-name="Group 398" transform="translate(0)" clip-path="url(#clip-path)">
      <path id="Path_77" data-name="Path 77" d="M13.008,6.651a14.911,14.911,0,0,1-11.227-5.5S-.62,4.948,3.407,8.277A5.117,5.117,0,0,1,.852,7.812c-.155.387.31,3.949,4.259,5.265,0,0-.542.387-2.246.077,0,0,.155,2.555,4.878,3.794,0,0-2.4,2.555-7.743,2.246,0,0,7.567,6.72,17.06-.129,6.117-4.413,6.478-9.24,6.556-13.653A17.538,17.538,0,0,0,26.4,2.7a16.11,16.11,0,0,1-3.252.852A8.694,8.694,0,0,0,25.629.612a32.054,32.054,0,0,1-3.484,1.316S20.054-1.556,15.408.844c-3.171,1.638-2.4,5.807-2.4,5.807" transform="translate(0 0)" fill="#aaa769"/>
    </g>
  </g>
</svg>
