<svg xmlns="http://www.w3.org/2000/svg" xmlns:xlink="http://www.w3.org/1999/xlink" width="28.805" height="27.669" viewBox="0 0 28.805 27.669">
  <defs>
    <clipPath id="clip-path">
      <rect id="Rectangle_483" data-name="Rectangle 483" width="28.805" height="27.669" fill="none"/>
    </clipPath>
  </defs>
  <g id="Group_401" data-name="Group 401" transform="translate(0)">
    <g id="Group_400" data-name="Group 400" transform="translate(0 0)" clip-path="url(#clip-path)">
      <path id="Path_78" data-name="Path 78" d="M.05,13.192C-.684,5.117,6.817-.057,14.607,0s15.126,5.63,14.1,13.135S14.835,27.294,13.982,27.578s-1.081-.171-1.081-.455.8-2.388.569-3.071-.74-.682-1.365-.682C10.229,23.371.733,20.7.05,13.192m9.212,1.934a.682.682,0,0,0-.682-.683H6.248v-5.4a.682.682,0,0,0-1.365,0v6.085a.682.682,0,0,0,.682.682H8.58a.682.682,0,0,0,.682-.682m2.332,0V9.041a.682.682,0,0,0-1.365,0v6.085a.682.682,0,0,0,1.365,0m6.521.649a.682.682,0,0,0,.473-.649V9.041a.682.682,0,0,0-1.365,0v3.968L14.08,8.642a.682.682,0,0,0-1.236.4v6.085a.682.682,0,0,0,1.365,0V11.158l3.143,4.366a.681.681,0,0,0,.763.251m5.42-1.332H21.09V12.794h2.331a.682.682,0,1,0,0-1.365H21.09V9.723h2.388a.682.682,0,1,0,0-1.365H20.407a.682.682,0,0,0-.683.682v6.085a.683.683,0,0,0,.683.682h3.127a.682.682,0,0,0,0-1.365" transform="translate(0 0)" fill="#aaa769"/>
    </g>
  </g>
</svg>
