<svg xmlns="http://www.w3.org/2000/svg" width="61" height="60" viewBox="0 0 61 60">
  <g id="i_a" transform="translate(0.334 -0.481)">
    <g id="Rectangle" transform="translate(-0.334 0.481)">
      <rect id="rect" width="61" height="60" transform="translate(0 0)" fill="none"/>
    </g>
    <g id="icon_data" transform="translate(2.483 12.642)">
      <line id="Line_165" data-name="Line 165" x2="31" transform="translate(12.182 37.839)" fill="none" stroke="#94913a" stroke-linecap="round" stroke-linejoin="round" stroke-width="2"/>
      <line id="Line_166" data-name="Line 166" y2="34" transform="translate(27.182 3.839)" fill="none" stroke="#94913a" stroke-linecap="round" stroke-linejoin="round" stroke-width="2"/>
      <line id="Line_167" data-name="Line 167" x2="31" transform="translate(12.182 37.839)" fill="none" stroke="#94913a" stroke-linecap="round" stroke-linejoin="round" stroke-width="2"/>
      <path id="Path_65" data-name="Path 65" d="M2,23.072,12.072,13,22.143,23.072A10.072,10.072,0,0,1,2,23.072Z" transform="translate(-2 -9.225)" fill="none" stroke="#c1bf86" stroke-linecap="round" stroke-linejoin="round" stroke-width="2"/>
      <path id="Path_66" data-name="Path 66" d="M47.084,20.012l3.059,3.059a10.072,10.072,0,1,1-20.143,0L40.072,13" transform="translate(5.251 -9.225)" fill="none" stroke="#c1bf86" stroke-linecap="round" stroke-linejoin="round" stroke-width="2"/>
      <path id="Path_67" data-name="Path 67" d="M10,13.777a12.174,12.174,0,0,1,17.626,0,12.174,12.174,0,0,1,17.626,0" transform="translate(0.072 -10.001)" fill="none" stroke="#94913a" stroke-linecap="round" stroke-linejoin="round" stroke-width="2"/>
    </g>
  </g>
</svg>
