<svg xmlns="http://www.w3.org/2000/svg" width="186" height="25.203" viewBox="0 0 186 25.203">
  <g id="Group_160" data-name="Group 160" transform="translate(0 -66.997)">
    <g id="Group_161" data-name="Group 161" transform="translate(0 66.997)">
      <path id="Path_18" data-name="Path 18" d="M17.343,86.967v3.041a14.446,14.446,0,0,1-7.005,1.649,10.852,10.852,0,0,1-5.47-1.29A9.516,9.516,0,0,1,1.314,86.8,9.716,9.716,0,0,1,0,81.875a9.382,9.382,0,0,1,3-7.066,10.286,10.286,0,0,1,7.394-2.87,17.436,17.436,0,0,1,6.74,1.58v2.97a13.258,13.258,0,0,0-6.6-1.936,7.662,7.662,0,0,0-5.5,2.089,6.97,6.97,0,0,0-2.178,5.234,6.865,6.865,0,0,0,2.15,5.214,7.679,7.679,0,0,0,5.5,2.037,12.417,12.417,0,0,0,6.839-2.158" transform="translate(0 -66.456)" fill="#94913a"/>
      <path id="Path_19" data-name="Path 19" d="M30.676,72.064h1.933l8.642,19.361H38.427l-2.57-5.7H27.64l-2.4,5.7H22.406Zm4.05,11.2L31.62,76.289l-2.881,6.979Z" transform="translate(2.454 -66.442)" fill="#94913a"/>
      <rect id="Rectangle_160" data-name="Rectangle 160" width="2.752" height="20.06" transform="translate(103.575 4.923)" fill="#94913a"/>
      <rect id="Rectangle_161" data-name="Rectangle 161" width="2.858" height="4.922" transform="translate(107.408)" fill="#94913a"/>
      <path id="Path_20" data-name="Path 20" d="M113.1,72.064h1.944l8.638,19.361h-2.83l-2.56-5.7h-8.213l-2.414,5.7h-2.827Zm4.056,11.2-3.112-6.979-2.875,6.979Z" transform="translate(11.481 -66.442)" fill="#94913a"/>
      <path id="Path_21" data-name="Path 21" d="M139.939,81.959h6.471v8.159a17.734,17.734,0,0,1-7.06,1.54,10.441,10.441,0,0,1-7.639-2.787,9.232,9.232,0,0,1-2.867-6.885,9.566,9.566,0,0,1,2.965-7.177,10.258,10.258,0,0,1,7.43-2.87,12.948,12.948,0,0,1,3.086.354,25.042,25.042,0,0,1,3.695,1.285v2.809a13.552,13.552,0,0,0-6.842-2,7.272,7.272,0,0,0-5.317,2.151,7.642,7.642,0,0,0,0,10.64,7.7,7.7,0,0,0,5.574,2.08,12.946,12.946,0,0,0,3.952-.761l.259-.079V84.41h-3.706Z" transform="translate(14.11 -66.456)" fill="#94913a"/>
      <path id="Path_22" data-name="Path 22" d="M155.454,72.161h13.264v2.456H158.212V80.49h9.562v2.461h-9.562v5.985h10.764v2.45H155.454Z" transform="translate(17.024 -66.431)" fill="#94913a"/>
      <path id="Path_23" data-name="Path 23" d="M84.329,91.414,79.116,82.77a5.1,5.1,0,0,0,3.5-4.907c0-5.21-4.9-5.7-8.1-5.7H70.762V91.414H73.52V83.632h1.048a13.529,13.529,0,0,0,1.892-.148l4.783,7.93ZM74.407,81.084H73.52V74.5h.823c.952,0,5.481-.3,5.481,3.144,0,3.57-4.52,3.435-5.418,3.435" transform="translate(7.749 -66.431)" fill="#94913a"/>
      <path id="Path_24" data-name="Path 24" d="M62.2,91.414l-5.21-8.645a5.1,5.1,0,0,0,3.5-4.906c0-5.21-4.89-5.7-8.1-5.7H48.637V91.414h2.749V83.632H52.44a13.507,13.507,0,0,0,1.889-.148l4.78,7.93ZM52.28,81.084h-.893V74.5h.828c.954,0,5.481-.3,5.481,3.144,0,3.57-4.518,3.435-5.416,3.435" transform="translate(5.326 -66.431)" fill="#94913a"/>
    </g>
  </g>
</svg>
