<svg id="Group_160" data-name="Group 160" xmlns="http://www.w3.org/2000/svg" width="104.517" height="14.162" viewBox="0 0 104.517 14.162">
  <g id="Group_161" data-name="Group 161" transform="translate(0 0)">
    <path id="Path_18" data-name="Path 18" d="M9.745,80.383v1.709a8.118,8.118,0,0,1-3.936.926,6.1,6.1,0,0,1-3.074-.725,5.347,5.347,0,0,1-2-2.007A5.46,5.46,0,0,1,0,77.522a5.272,5.272,0,0,1,1.686-3.971,5.78,5.78,0,0,1,4.155-1.613,9.8,9.8,0,0,1,3.787.888v1.669a7.45,7.45,0,0,0-3.711-1.088A4.305,4.305,0,0,0,2.83,74.581a3.917,3.917,0,0,0-1.224,2.941,3.858,3.858,0,0,0,1.208,2.93A4.315,4.315,0,0,0,5.9,81.6a6.977,6.977,0,0,0,3.843-1.213" transform="translate(0 -68.857)" fill="#94913a"/>
    <path id="Path_19" data-name="Path 19" d="M27.053,72.064h1.086L33,82.943H31.409l-1.444-3.2H25.347L24,82.943H22.406Zm2.276,6.3-1.745-3.922L25.965,78.36Z" transform="translate(-8.437 -68.905)" fill="#94913a"/>
    <rect id="Rectangle_160" data-name="Rectangle 160" width="1.546" height="11.272" transform="translate(58.201 2.766)" fill="#94913a"/>
    <rect id="Rectangle_161" data-name="Rectangle 161" width="1.606" height="2.766" transform="translate(60.355)" fill="#94913a"/>
    <path id="Path_20" data-name="Path 20" d="M109.484,72.064h1.092l4.854,10.879h-1.59l-1.438-3.2h-4.615l-1.357,3.2h-1.589Zm2.279,6.3-1.749-3.922L108.4,78.36Z" transform="translate(-39.477 -68.905)" fill="#94913a"/>
    <path id="Path_21" data-name="Path 21" d="M135.079,77.569h3.636v4.585a9.965,9.965,0,0,1-3.967.865,5.867,5.867,0,0,1-4.292-1.566,5.187,5.187,0,0,1-1.611-3.869,5.375,5.375,0,0,1,1.666-4.033,5.764,5.764,0,0,1,4.175-1.613,7.276,7.276,0,0,1,1.734.2,14.071,14.071,0,0,1,2.076.722v1.579a7.615,7.615,0,0,0-3.845-1.122,4.086,4.086,0,0,0-2.988,1.209,4.294,4.294,0,0,0,0,5.979,4.326,4.326,0,0,0,3.132,1.169,7.275,7.275,0,0,0,2.221-.428l.145-.044V78.947h-2.082Z" transform="translate(-48.515 -68.858)" fill="#94913a"/>
    <path id="Path_22" data-name="Path 22" d="M155.454,72.161h7.453v1.38H157v3.3h5.373v1.383H157v3.363h6.049v1.377h-7.6Z" transform="translate(-58.535 -68.941)" fill="#94913a"/>
    <path id="Path_23" data-name="Path 23" d="M78.386,82.98l-2.93-4.857a2.863,2.863,0,0,0,1.965-2.758c0-2.928-2.751-3.2-4.554-3.2H70.762V82.98h1.55V78.607H72.9a7.6,7.6,0,0,0,1.063-.083l2.688,4.456ZM72.81,77.175h-.5v-3.7h.463c.535,0,3.08-.169,3.08,1.767,0,2.006-2.54,1.93-3.044,1.93" transform="translate(-26.645 -68.941)" fill="#94913a"/>
    <path id="Path_24" data-name="Path 24" d="M56.257,82.98l-2.928-4.858a2.863,2.863,0,0,0,1.965-2.757c0-2.928-2.748-3.2-4.553-3.2h-2.1V82.98h1.545V78.607h.592a7.59,7.59,0,0,0,1.062-.083l2.686,4.456Zm-5.573-5.805h-.5v-3.7h.465c.536,0,3.08-.169,3.08,1.767,0,2.006-2.539,1.93-3.043,1.93" transform="translate(-18.314 -68.941)" fill="#94913a"/>
  </g>
</svg>
