<svg id="Group_193" data-name="Group 193" xmlns="http://www.w3.org/2000/svg" xmlns:xlink="http://www.w3.org/1999/xlink" width="120.968" height="64.735" viewBox="0 0 120.968 64.735">
  <defs>
    <clipPath id="clip-path">
      <rect id="Rectangle_216" data-name="Rectangle 216" width="120.968" height="64.735" fill="#94913a"/>
    </clipPath>
  </defs>
  <g id="Group_192" data-name="Group 192" transform="translate(0 0)" clip-path="url(#clip-path)">
    <path id="Path_30" data-name="Path 30" d="M11.279,81.713v1.978a9.4,9.4,0,0,1-4.556,1.072,7.058,7.058,0,0,1-3.557-.839A6.189,6.189,0,0,1,.854,81.6,6.319,6.319,0,0,1,0,78.4a6.1,6.1,0,0,1,1.952-4.6,6.69,6.69,0,0,1,4.809-1.867,11.34,11.34,0,0,1,4.384,1.028V74.9a8.622,8.622,0,0,0-4.295-1.259A4.983,4.983,0,0,0,3.275,75a4.533,4.533,0,0,0-1.416,3.4,4.465,4.465,0,0,0,1.4,3.391,4.994,4.994,0,0,0,3.574,1.325,8.075,8.075,0,0,0,4.448-1.4" transform="translate(0 -20.028)" fill="#94913a"/>
    <path id="Path_31" data-name="Path 31" d="M27.785,72.064h1.257l5.62,12.592H32.826l-1.671-3.708H25.81l-1.562,3.708H22.406Zm2.634,7.287L28.4,74.812l-1.874,4.539Z" transform="translate(-6.238 -20.063)" fill="#94913a"/>
    <rect id="Rectangle_213" data-name="Rectangle 213" width="1.79" height="13.046" transform="translate(67.362 51.546)" fill="#94913a"/>
    <rect id="Rectangle_214" data-name="Rectangle 214" width="1.859" height="3.201" transform="translate(69.855 48.344)" fill="#94913a"/>
    <path id="Path_32" data-name="Path 32" d="M110.215,72.064h1.264L117.1,84.656h-1.841l-1.665-3.708H108.25l-1.57,3.708h-1.839Zm2.638,7.287-2.024-4.539-1.87,4.539Z" transform="translate(-29.189 -20.063)" fill="#94913a"/>
    <path id="Path_33" data-name="Path 33" d="M136.06,78.456h4.208v5.307a11.533,11.533,0,0,1-4.591,1,6.79,6.79,0,0,1-4.968-1.813,6,6,0,0,1-1.865-4.477,6.222,6.222,0,0,1,1.928-4.668,6.671,6.671,0,0,1,4.832-1.867,8.421,8.421,0,0,1,2.007.23,16.287,16.287,0,0,1,2.4.836v1.827a8.814,8.814,0,0,0-4.45-1.3,4.729,4.729,0,0,0-3.458,1.4,4.97,4.97,0,0,0,0,6.92,5.007,5.007,0,0,0,3.625,1.353,8.42,8.42,0,0,0,2.57-.5l.168-.051V80.05h-2.41Z" transform="translate(-35.871 -20.028)" fill="#94913a"/>
    <path id="Path_34" data-name="Path 34" d="M155.454,72.161h8.627v1.6h-6.833v3.819h6.219v1.6h-6.219v3.892h7v1.593h-8.795Z" transform="translate(-43.28 -20.09)" fill="#94913a"/>
    <path id="Path_35" data-name="Path 35" d="M79.586,84.683l-3.391-5.622a3.314,3.314,0,0,0,2.274-3.192c0-3.389-3.184-3.708-5.271-3.708H70.762V84.683h1.794V79.622h.682a8.8,8.8,0,0,0,1.23-.1l3.111,5.157Zm-6.453-6.719h-.577V73.685h.535c.619,0,3.565-.2,3.565,2.045,0,2.322-2.94,2.234-3.524,2.234" transform="translate(-19.701 -20.09)" fill="#94913a"/>
    <path id="Path_36" data-name="Path 36" d="M57.456,84.683,54.068,79.06a3.314,3.314,0,0,0,2.274-3.191c0-3.389-3.18-3.708-5.27-3.708H48.637V84.683h1.788V79.622h.686a8.784,8.784,0,0,0,1.229-.1l3.109,5.157Zm-6.45-6.719h-.581V73.685h.538c.621,0,3.565-.2,3.565,2.045,0,2.322-2.938,2.234-3.522,2.234" transform="translate(-13.541 -20.09)" fill="#94913a"/>
    <path id="Path_37" data-name="Path 37" d="M78.131,10.262A14.769,14.769,0,1,0,92.9,25.031,14.787,14.787,0,0,0,78.131,10.262m1.931,14.476L89.646,19.2a12.907,12.907,0,0,1,0,11.658l-9.586-5.538a2.393,2.393,0,0,0,.019-.292c0-.1-.008-.2-.017-.293m8.878-6.764-9.594,5.535a1.854,1.854,0,0,0-.5-.292V12.14a12.925,12.925,0,0,1,10.1,5.833M77.423,12.14V23.216a1.938,1.938,0,0,0-.514.292l-9.585-5.535a12.918,12.918,0,0,1,10.1-5.833M66.614,19.2,76.2,24.738a1.671,1.671,0,0,0-.028.293,1.611,1.611,0,0,0,.028.292l-9.591,5.538a12.871,12.871,0,0,1,0-11.658m.71,12.887,9.589-5.535a1.946,1.946,0,0,0,.51.293V37.924a12.928,12.928,0,0,1-10.1-5.834m11.519,5.834V26.848a1.955,1.955,0,0,0,.5-.293L88.94,32.09a12.936,12.936,0,0,1-10.1,5.834" transform="translate(-17.64 -2.857)" fill="#94913a"/>
    <path id="Path_38" data-name="Path 38" d="M93.473,10.3V8.449l-.006-.012L91.125,9.46V4.834H66.881v7.014h1.705V6.537H89.415v5.528Z" transform="translate(-18.62 -1.346)" fill="#94913a"/>
    <rect id="Rectangle_215" data-name="Rectangle 215" width="23.882" height="1.706" transform="translate(48.444)" fill="#94913a"/>
  </g>
</svg>
