<svg xmlns="http://www.w3.org/2000/svg" width="50.641" height="47.614" viewBox="0 0 50.641 47.614">
  <g id="_1066_cm_h_1_" data-name="1066_cm_h (1)" transform="translate(-5.548 -6.63)">
    <path id="Path_43" data-name="Path 43" d="M19.94,38.426A14.725,14.725,0,0,0,41.215,45.31l6.474,1.717L46.017,40.6a14.589,14.589,0,0,0-2.082-18.053,14.786,14.786,0,0,0-7.188-3.936" transform="translate(6.954 5.706)" fill="rgba(0,0,0,0)" stroke="#aaa769" stroke-linecap="round" stroke-miterlimit="10" stroke-width="2"/>
    <path id="Path_44" data-name="Path 44" d="M34.583,35.546a16.306,16.306,0,0,0,0-23.129,16.473,16.473,0,0,0-23.22,0A16.306,16.306,0,0,0,9.023,32.6L7.078,39.786l7.233-1.93a16.473,16.473,0,0,0,20.272-2.31Z" transform="translate(0 0)" fill="rgba(0,0,0,0)" stroke="#aaa769" stroke-linecap="round" stroke-miterlimit="10" stroke-width="2"/>
    <g id="Group_278" data-name="Group 278" transform="translate(18.491 15.365)">
      <path id="Path_45" data-name="Path 45" d="M14.41,16.9a4.225,4.225,0,1,1,8.449.091,4.164,4.164,0,0,1-1.246,2.948l.167-.182-3.206,3.358v1.869" transform="translate(-14.41 -12.72)" fill="rgba(0,0,0,0)" stroke="#aaa769" stroke-linecap="round" stroke-linejoin="round" stroke-width="2"/>
      <circle id="Ellipse_10" data-name="Ellipse 10" cx="1.52" cy="1.52" r="1.52" transform="translate(2.781 16.2)" fill="#aaa769"/>
    </g>
  </g>
</svg>
